<?xml version="1.0" encoding="iso-8859-1"?>
<!-- Generator: Adobe Illustrator 19.0.0, SVG Export Plug-In . SVG Version: 6.00 Build 0)  -->
<svg version="1.1" id="Layer_1" xmlns="http://www.w3.org/2000/svg" xmlns:xlink="http://www.w3.org/1999/xlink" x="0px" y="0px"
	 viewBox="0 0 504.32 504.32" style="enable-background:new 0 0 504.32 504.32;" xml:space="preserve">
<g transform="translate(1 1)">
	<path style="fill:#80D6FA;" d="M327.533,498.627c-25.6-17.067-51.2-25.6-85.333-17.067l42.667-392.533
		c8.533-51.2,38.4-85.333,85.333-85.333s76.8,34.133,85.333,85.333L498.2,481.56c-19.627-5.12-35.84-4.267-51.2,0
		c0,0-17.92,5.12-34.133,17.067C387.267,481.56,353.133,481.56,327.533,498.627z M173.933,3.693
		c25.6,17.067,51.2,25.6,85.333,17.067L216.6,413.293c-8.533,51.2-38.4,85.333-85.333,85.333s-76.8-34.133-85.333-85.333
		L3.267,20.76c19.627,5.12,35.84,4.267,51.2,0c0,0,17.92-4.267,34.133-17.067C114.2,20.76,148.333,20.76,173.933,3.693z"/>
	<path style="fill:#AAB1BA;" d="M412.867,97.56v34.133c0,23.893-18.773,42.667-42.667,42.667c-23.893,0-42.667-18.773-42.667-42.667
		V97.56c0-23.893,18.773-42.667,42.667-42.667C394.093,54.893,412.867,73.667,412.867,97.56z M173.933,370.627v34.133
		c0,23.893-18.773,42.667-42.667,42.667S88.6,428.653,88.6,404.76v-34.133c0-23.893,18.773-42.667,42.667-42.667
		S173.933,346.733,173.933,370.627z"/>
</g>
<path style="fill:#51565F;" d="M413.867,503.893c-0.853,0-0.853,0-1.707,0l0,0l0,0c0,0-0.853,0-0.853-0.853
	c-23.893-16.213-56.32-16.213-80.213,0c-0.853,0.853-0.853,0.853-2.56,0.853l0,0l0,0l0,0c-0.853,0-1.707,0-1.707-0.853
	c-28.16-18.773-52.907-23.893-81.92-16.213c-1.707,0-2.56,0-3.413-0.853c-0.853-0.853-1.707-2.56-1.707-3.413l42.667-392.533
	c9.387-56.32,42.667-88.747,89.6-88.747s80.213,33.28,89.6,88.747L504.32,482.56c0,1.707,0,2.56-1.707,3.413
	c-0.853,0.853-2.56,0.853-3.413,0.853c-17.067-4.267-33.28-4.267-48.64,0c-2.56,0.853-4.267-0.853-5.12-2.56
	c-0.853-2.56,0.853-4.267,2.56-5.12c15.36-4.267,30.72-5.12,47.787-1.707L453.974,90.88c-8.533-52.053-38.4-81.92-81.067-81.92
	s-72.533,29.867-81.067,81.92l-41.813,386.56c27.307-5.12,50.347-0.853,76.8,15.36l8.533-180.053c0-2.56,1.707-4.267,4.267-4.267
	s4.267,1.707,4.267,4.267l0,0L335.36,492.8c23.893-12.8,52.907-12.8,75.947,0l-8.533-180.053l0,0c0-2.56,1.707-4.267,4.267-4.267
	s4.267,1.707,4.267,4.267l8.533,187.733c0,0.853,0,0.853,0,1.707l0,0l0,0c0,0.853,0,0.853-0.853,0.853l0,0l0,0
	c0,0.853-0.853,0.853-1.707,0.853C415.573,503.893,414.72,503.893,413.867,503.893L413.867,503.893L413.867,503.893L413.867,503.893
	z M132.267,503.893c-46.933,0-80.213-33.28-89.6-88.747L0,22.613c0-1.707,0-2.56,1.707-3.413c0.853-0.853,2.56-0.853,3.413-0.853
	c17.067,4.267,33.28,4.267,48.64,0c2.56-0.853,4.267,0.853,5.12,2.56c0.853,2.56-0.853,4.267-2.56,5.12
	c-15.36,4.267-30.72,5.12-47.787,1.707l41.813,386.56c8.533,52.053,38.4,81.92,81.067,81.92s72.533-29.867,81.067-81.92
	l41.813-386.56c-27.307,5.12-50.347,0.853-76.8-15.36l-8.533,180.053c0,2.56-2.56,4.267-4.267,4.267
	c-2.56,0-4.267-1.707-4.267-4.267l0,0l8.533-180.053c-23.893,12.8-52.907,12.8-75.947,0l8.533,180.053l0,0
	c0,2.56-1.707,4.267-4.267,4.267c-1.707,0-4.267-1.707-4.267-4.267L84.48,4.694c0-0.853,0-0.853,0-1.707l0,0l0,0
	c0-0.853,0-0.853,0.853-0.853l0,0l0,0c0-0.853,0.853-0.853,1.707-0.853s0.853-0.853,1.707-0.853l0,0l0,0c0.853,0,0.853,0,1.707,0
	l0,0l0,0c0,0,0.853,0,0.853,0.853c23.893,16.213,56.32,16.213,80.213,0c0.853-0.853,1.707-0.853,2.56-0.853l0,0l0,0l0,0
	c0.853,0,1.707,0,1.707,0.853c28.16,18.773,52.907,23.893,81.92,16.213c1.707,0,2.56,0,3.413,0.853
	c0.853,0.853,1.707,2.56,1.707,3.413l-42.667,392.533C212.48,470.613,179.2,503.893,132.267,503.893z M132.267,452.693
	c-25.6,0-46.933-21.333-46.933-46.933v-34.133c0-25.6,21.333-46.933,46.933-46.933s46.933,21.333,46.933,46.933v34.133
	C179.2,431.36,157.867,452.693,132.267,452.693z M132.267,333.227c-21.333,0-38.4,17.067-38.4,38.4v34.133
	c0,21.333,17.067,38.4,38.4,38.4s38.4-17.067,38.4-38.4v-34.133C170.667,350.293,153.6,333.227,132.267,333.227z M89.6,299.093
	c-1.707,0-3.413-0.853-3.413-2.56c-0.853-1.707,0-4.267,1.707-5.973c0.853,0,17.92-9.387,44.373-9.387s43.52,8.533,44.373,9.387
	c1.707,0.853,2.56,3.413,1.707,5.973c-0.853,1.707-3.413,2.56-5.973,1.707c0,0-16.213-7.68-40.96-7.68
	c-23.893,0-40.96,7.68-40.96,7.68C91.307,299.093,90.453,299.093,89.6,299.093z M371.2,264.96c-34.987,0-52.053-8.533-52.907-9.387
	c-1.707-0.853-2.56-3.413-1.707-5.973c0.853-1.707,3.413-2.56,5.973-1.707c0,0,17.067,7.68,49.493,7.68s49.493-7.68,49.493-7.68
	c1.707-0.853,4.267,0,5.973,1.707c0.853,1.707,0,4.267-1.707,5.973C423.253,256.427,406.187,264.96,371.2,264.96z M183.467,256.427
	c-0.853,0-0.853,0-1.707-0.853c0,0-17.067-7.68-49.493-7.68c-32.427,0-49.493,7.68-49.493,7.68c-1.707,0.853-4.267,0-5.973-1.707
	s0-4.267,1.707-5.973c0.853,0,18.773-9.387,52.907-9.387s52.053,8.533,52.907,9.387c1.707,0.853,2.56,3.413,1.707,5.973
	C186.88,255.573,185.173,256.427,183.467,256.427z M371.2,222.293c-26.453,0-43.52-8.533-44.373-9.387
	c-1.707-0.853-2.56-3.413-1.707-5.973c0.853-1.707,3.413-2.56,5.973-1.707c0,0,16.213,7.68,40.96,7.68
	c23.893,0,40.96-7.68,40.96-7.68c1.707-0.853,4.267,0,5.973,1.707c0.853,1.707,0,4.267-1.707,5.973
	C414.72,213.76,397.653,222.293,371.2,222.293z M371.2,179.627c-25.6,0-46.933-21.333-46.933-46.933V98.56
	c0-25.6,21.333-46.933,46.933-46.933s46.933,21.333,46.933,46.933v34.133C418.133,158.293,396.8,179.627,371.2,179.627z
	 M371.2,60.16c-21.333,0-38.4,17.067-38.4,38.4v34.133c0,21.333,17.067,38.4,38.4,38.4c21.333,0,38.4-17.067,38.4-38.4V98.56
	C409.6,77.227,392.533,60.16,371.2,60.16z"/>
<g>
</g>
<g>
</g>
<g>
</g>
<g>
</g>
<g>
</g>
<g>
</g>
<g>
</g>
<g>
</g>
<g>
</g>
<g>
</g>
<g>
</g>
<g>
</g>
<g>
</g>
<g>
</g>
<g>
</g>
</svg>
