<?xml version="1.0" encoding="UTF-8" standalone="no"?>
<svg
   xmlns:dc="http://purl.org/dc/elements/1.1/"
   xmlns:cc="http://creativecommons.org/ns#"
   xmlns:rdf="http://www.w3.org/1999/02/22-rdf-syntax-ns#"
   xmlns:svg="http://www.w3.org/2000/svg"
   xmlns="http://www.w3.org/2000/svg"
   height="167.82234"
   width="167.82333"
   xml:space="preserve"
   viewBox="0 0 503.46999 503.46702"
   y="0px"
   x="0px"
   id="Layer_1"
   version="1.1"><metadata
   id="metadata47"><rdf:RDF><cc:Work
       rdf:about=""><dc:format>image/svg+xml</dc:format><dc:type
         rdf:resource="http://purl.org/dc/dcmitype/StillImage" /><dc:title></dc:title></cc:Work></rdf:RDF></metadata><defs
   id="defs45" />
<g
   id="g8"
   transform="translate(9,9)">
	<path
   id="path2"
   d="m 242.734,183 c 33.28,0 59.733,26.453 59.733,59.733 0,33.28 -26.453,59.733 -59.733,59.733 C 209.454,302.466 183,276.014 183,242.734 183,209.454 209.454,183 242.734,183"
   style="fill:#ae938d" />
	<path
   id="path4"
   d="m 242.734,234.2 c 5.12,0 8.533,4.267 8.533,8.533 0,4.266 -3.413,8.533 -8.533,8.533 -5.12,0 -8.533,-4.267 -8.533,-8.533 0,-4.266 3.413,-8.533 8.533,-8.533"
   style="fill:#ecf4f7" />
	<path
   id="path6"
   d="m 242.734,387.8 c 80.213,0 145.067,-64.853 145.067,-145.067 0,-80.214 -64.854,-145.066 -145.067,-145.066 -80.213,0 -145.067,64.853 -145.067,145.067 0,80.214 64.853,145.066 145.067,145.066 M 398.04,153.134 c 15.36,26.453 23.893,57.173 23.893,89.6 0,32.427 -8.533,63.147 -23.893,89.6 -15.36,27.307 -38.4,50.347 -65.707,65.707 -26.453,15.36 -57.173,23.893 -89.6,23.893 -32.427,0 -63.147,-8.533 -89.6,-23.893 -27.307,-15.36 -50.347,-38.4 -65.707,-65.707 -15.36,-26.453 -23.893,-57.173 -23.893,-89.6 0,-32.427 8.533,-63.147 23.893,-89.6 15.36,-27.307 38.4,-50.347 65.707,-65.707 26.453,-15.36 57.173,-23.893 89.6,-23.893 32.427,0 63.147,8.533 89.6,23.893 27.307,15.36 50.347,38.4 65.707,65.707"
   style="fill:#ae938d" />
</g>
<path
   id="path10"
   d="m 251.734,503.467 c -2.56,0 -4.267,-1.707 -4.267,-4.267 V 469.333 H 243.2 c -2.56,0 -4.267,-1.707 -4.267,-4.267 0,-2.56 1.707,-4.267 4.267,-4.267 h 4.267 v -25.6 c -29.867,-0.853 -58.88,-8.533 -83.627,-22.187 l -12.8,22.187 3.413,2.56 c 1.707,0.853 2.56,2.56 2.56,3.413 0,0.853 0,1.707 -0.853,2.56 -0.853,1.707 -3.413,2.56 -5.973,1.707 l -3.413,-2.56 -14.507,25.6 c -0.853,1.707 -3.413,2.56 -5.973,1.707 -1.707,-0.853 -2.56,-2.56 -2.56,-3.413 0,-0.853 0,-1.707 0.853,-2.56 l 14.507,-25.6 -3.413,-2.56 c -1.707,-0.853 -2.56,-2.56 -2.56,-3.413 0,-0.853 0,-1.707 0.853,-2.56 0.853,-1.707 3.413,-2.56 5.973,-1.707 l 3.413,2.56 12.8,-22.187 c -24.747,-15.36 -46.08,-36.693 -61.44,-61.44 l -22.187,12.8 2.56,3.413 c 0,0.853 0.853,1.707 0.853,2.56 0,1.707 -0.853,2.56 -2.56,3.413 -1.707,0.853 -4.267,0.853 -5.973,-1.707 l -2.56,-3.413 -25.6,14.507 c -1.707,0.853 -4.267,0.853 -5.973,-1.707 0,-0.853 -0.853,-1.707 -0.853,-2.56 0,-1.707 0.853,-2.56 2.56,-3.413 l 25.6,-14.507 -2.56,-3.413 c 0,-0.853 -0.853,-1.707 -0.853,-2.56 0,-1.707 0.853,-2.56 2.56,-3.413 1.707,-0.853 4.267,-0.853 5.973,1.707 l 2.56,3.413 22.187,-12.8 C 76.801,314.879 68.267,285.866 68.267,255.999 h -25.6 v 4.267 c 0,2.56 -1.707,4.267 -4.267,4.267 -2.56,0 -4.267,-1.707 -4.267,-4.267 v -4.267 H 4.267 c -2.56,0 -4.267,-1.707 -4.267,-4.267 0,-2.56 1.707,-4.267 4.267,-4.267 H 34.134 V 243.2 c 0,-2.56 1.707,-4.267 4.267,-4.267 2.56,0 4.267,1.707 4.267,4.267 v 4.267 h 25.6 c 0.853,-29.867 8.533,-58.88 22.187,-83.627 l -22.187,-12.8 -1.707,3.413 c -0.853,1.707 -3.413,2.56 -5.973,1.707 -1.707,-0.853 -2.56,-2.56 -2.56,-3.413 0,-0.853 0,-1.707 0.853,-2.56 l 1.707,-3.413 -25.6,-15.36 c -1.707,-0.853 -2.56,-2.56 -2.56,-3.413 0,-0.853 0,-1.707 0.853,-2.56 0.853,-1.707 3.413,-2.56 5.973,-1.707 l 25.6,15.36 2.56,-3.413 c 0.853,-1.707 3.413,-2.56 5.973,-1.707 1.707,0.853 2.56,2.56 2.56,3.413 0,0.853 0,1.707 -0.853,2.56 l -2.56,3.413 22.187,12.8 c 15.36,-24.747 36.693,-46.08 61.44,-61.44 l -12.8,-22.187 -3.413,1.707 c -1.707,0.853 -4.267,0.853 -5.973,-1.707 0,-0.853 -0.853,-1.707 -0.853,-2.56 0,-1.707 0.853,-2.56 2.56,-3.413 l 3.413,-1.707 -15.36,-25.6 c 0,-0.853 -0.853,-1.707 -0.853,-2.56 0,-1.707 0.853,-2.56 2.56,-3.413 1.707,-0.853 4.267,-0.853 5.973,1.707 l 14.507,25.6 3.413,-2.56 c 1.707,-0.853 4.267,-0.853 5.973,1.707 0,0.853 0.853,1.707 0.853,2.56 0,1.707 -0.853,2.56 -2.56,3.413 l -3.413,2.56 12.8,22.187 c 24.747,-13.653 53.76,-22.187 83.627,-22.187 v -25.6 h -4.267 c -2.56,0 -4.267,-1.707 -4.267,-4.267 0,-2.56 1.707,-4.267 4.267,-4.267 h 4.267 V 4.267 c 0,-2.56 1.707,-4.267 4.267,-4.267 2.56,0 4.267,1.707 4.267,4.267 v 29.867 h 4.267 c 2.56,0 4.267,1.707 4.267,4.267 0,2.56 -1.707,4.267 -4.267,4.267 h -4.267 v 25.6 c 29.867,0.853 58.88,8.533 83.627,22.187 l 12.8,-22.187 -3.413,-1.707 c -1.707,-0.853 -2.56,-2.56 -2.56,-3.413 0,-0.853 0,-1.707 0.853,-2.56 0.853,-1.707 3.413,-2.56 5.973,-1.707 l 3.413,1.707 15.36,-25.6 c 0.853,-1.707 3.413,-2.56 5.973,-1.707 1.707,0.853 2.56,2.56 2.56,3.413 0,0.853 0,1.707 -0.853,2.56 l -14.507,25.6 3.413,2.56 c 1.707,0.853 2.56,2.56 2.56,3.413 0,0.853 0,1.707 -0.853,2.56 -0.853,1.707 -3.413,2.56 -5.973,1.707 l -3.413,-2.56 -12.8,22.187 c 24.747,15.36 46.08,36.693 61.44,61.44 l 22.187,-12.8 -1.707,-3.413 c 0,-0.853 -0.853,-1.707 -0.853,-2.56 0,-1.707 0.853,-2.56 2.56,-3.413 1.707,-0.853 4.267,-0.853 5.973,1.707 l 1.707,3.413 25.6,-14.507 c 1.707,-0.853 4.267,-0.853 5.973,1.707 0,0.853 0.853,1.707 0.853,2.56 0,1.707 -0.853,2.56 -2.56,3.413 l -25.6,14.507 2.56,3.413 c 0,0.853 0.853,1.707 0.853,2.56 0,1.707 -0.853,2.56 -2.56,3.413 -1.707,0.853 -4.267,0.853 -5.973,-1.707 l -2.56,-3.413 -22.187,12.8 c 13.653,24.747 22.187,53.76 22.187,83.627 h 25.6 V 243.2 c 0,-2.56 1.707,-4.267 4.267,-4.267 2.56,0 4.267,1.707 4.267,4.267 v 4.267 h 29.867 c 2.56,0 4.267,1.707 4.267,4.267 0,2.56 -1.709,4.266 -4.269,4.266 h -29.867 v 4.267 c 0,2.56 -1.707,4.267 -4.267,4.267 -2.56,0 -4.267,-1.707 -4.267,-4.267 V 256 h -25.6 c -0.853,29.867 -8.533,58.88 -22.187,83.627 l 22.187,12.8 2.56,-3.413 c 0.853,-1.707 3.413,-2.56 5.973,-1.707 1.707,0.853 2.56,2.56 2.56,3.413 0,0.853 0,1.707 -0.853,2.56 l -1.707,3.413 25.6,14.507 c 1.707,0.853 2.56,2.56 2.56,3.413 0,0.853 0,1.707 -0.853,2.56 -0.853,1.707 -3.413,2.56 -5.973,1.707 l -25.6,-14.507 -2.56,3.413 c -0.853,1.707 -3.413,2.56 -5.973,1.707 -1.707,-0.853 -2.56,-2.56 -2.56,-3.413 0,-0.853 0,-1.707 0.853,-2.56 l 2.56,-3.413 -22.187,-12.8 c -15.36,24.747 -36.693,46.08 -61.44,61.44 l 12.8,22.187 3.413,-1.707 c 1.707,-0.853 4.267,-0.853 5.973,1.707 0,0.853 0.853,1.707 0.853,2.56 0,1.707 -0.853,2.56 -2.56,3.413 l -3.413,2.56 14.507,25.6 c 0,0.853 0.853,1.707 0.853,2.56 0,1.707 -0.853,2.56 -2.56,3.413 -1.707,0.853 -4.267,0.853 -5.973,-1.707 l -14.507,-25.6 -3.413,2.56 c -1.707,0.853 -4.267,0.853 -5.973,-1.707 0,-0.853 -0.853,-1.707 -0.853,-2.56 0,-1.707 0.853,-2.56 2.56,-3.413 l 3.413,-2.56 -12.8,-22.187 c -24.747,13.653 -53.76,22.187 -83.627,22.187 v 25.6 h 4.267 c 2.56,0 4.267,1.707 4.267,4.267 0,2.56 -1.707,4.267 -4.267,4.267 h -4.267 v 29.867 c -0.853,1.706 -2.559,3.413 -5.119,3.413 z m 0,-426.667 C 155.307,76.8 76.8,155.307 76.8,251.734 c 0,96.427 78.507,174.933 174.933,174.933 96.426,0 174.933,-78.507 174.933,-174.933 C 426.666,155.308 348.16,76.8 251.734,76.8 Z m 0,324.267 c -2.56,0 -4.267,-1.707 -4.267,-4.267 V 315.733 C 215.894,314.026 190.294,288.426 187.734,256 h -76.8 c 1.707,63.147 45.227,116.907 106.667,132.267 2.56,0.853 3.413,2.56 3.413,5.12 -0.853,2.56 -2.56,3.413 -5.12,3.413 C 149.334,380.587 102.4,320.854 102.4,251.734 c 0,-2.56 1.707,-4.267 4.267,-4.267 h 81.067 c 1.707,-31.573 27.307,-57.173 59.733,-59.733 v -76.8 c -63.147,1.707 -117.76,46.08 -132.267,107.52 -0.853,2.56 -2.56,3.413 -5.12,3.413 -2.56,-0.853 -3.413,-2.56 -3.413,-5.12 C 122.88,149.334 182.614,102.4 251.734,102.4 c 2.56,0 4.267,1.707 4.267,4.267 v 81.067 c 31.573,1.707 57.173,27.307 59.733,59.733 h 76.8 C 390.827,184.32 347.307,129.707 285.014,115.2 c -2.56,-0.853 -3.413,-2.56 -3.413,-5.12 0.853,-2.56 2.56,-3.413 5.12,-3.413 67.413,16.213 114.347,75.947 114.347,145.067 0,2.56 -1.707,4.267 -4.267,4.267 h -81.067 c -1.707,31.573 -27.307,57.173 -59.733,59.733 v 76.8 c 63.147,-1.707 117.76,-45.227 132.267,-107.52 0.853,-2.56 2.56,-3.413 5.12,-3.413 2.56,0.853 3.413,2.56 3.413,5.12 -16.214,67.413 -75.947,114.346 -145.067,114.346 z m 0,-204.8 c -30.72,0 -55.467,24.747 -55.467,55.467 0,30.72 24.747,55.467 55.467,55.467 30.72,0 55.467,-24.747 55.467,-55.467 0,-30.72 -24.747,-55.467 -55.467,-55.467 z m 0,68.267 c -6.827,0 -12.8,-5.973 -12.8,-12.8 0,-6.827 5.973,-12.8 12.8,-12.8 6.827,0 12.8,5.973 12.8,12.8 0,6.827 -5.974,12.8 -12.8,12.8 z m 0,-17.067 c -2.56,0 -4.267,1.707 -4.267,4.267 0,2.56 1.707,4.267 4.267,4.267 2.56,0 4.267,-1.707 4.267,-4.267 0,-2.56 -1.707,-4.267 -4.267,-4.267 z"
   style="fill:#51565f" />
<g
   id="g12">
</g>
<g
   id="g14">
</g>
<g
   id="g16">
</g>
<g
   id="g18">
</g>
<g
   id="g20">
</g>
<g
   id="g22">
</g>
<g
   id="g24">
</g>
<g
   id="g26">
</g>
<g
   id="g28">
</g>
<g
   id="g30">
</g>
<g
   id="g32">
</g>
<g
   id="g34">
</g>
<g
   id="g36">
</g>
<g
   id="g38">
</g>
<g
   id="g40">
</g>
</svg>