<?xml version="1.0" encoding="UTF-8" standalone="no"?>
<svg
   xmlns:dc="http://purl.org/dc/elements/1.1/"
   xmlns:cc="http://creativecommons.org/ns#"
   xmlns:rdf="http://www.w3.org/1999/02/22-rdf-syntax-ns#"
   xmlns:svg="http://www.w3.org/2000/svg"
   xmlns="http://www.w3.org/2000/svg"
   xmlns:sodipodi="http://sodipodi.sourceforge.net/DTD/sodipodi-0.dtd"
   xmlns:inkscape="http://www.inkscape.org/namespaces/inkscape"
   viewBox="0 0 202.09 91.099075"
   height="91.099075"
   width="202.09"
   xml:space="preserve"
   id="svg2"
   version="1.1"
   sodipodi:docname="Logo resize.svg"
   inkscape:version="0.92.2 2405546, 2018-03-11"><sodipodi:namedview
     pagecolor="#ffffff"
     bordercolor="#666666"
     borderopacity="1"
     objecttolerance="10"
     gridtolerance="10"
     guidetolerance="10"
     inkscape:pageopacity="0"
     inkscape:pageshadow="2"
     inkscape:window-width="1366"
     inkscape:window-height="700"
     id="namedview3785"
     showgrid="false"
     fit-margin-top="1"
     fit-margin-right="1"
     fit-margin-left="1"
     fit-margin-bottom="1"
     inkscape:zoom="1"
     inkscape:cx="448.41743"
     inkscape:cy="89.01183"
     inkscape:window-x="0"
     inkscape:window-y="0"
     inkscape:window-maximized="1"
     inkscape:current-layer="svg2" /><metadata
     id="metadata8"><rdf:RDF><cc:Work
         rdf:about=""><dc:format>image/svg+xml</dc:format><dc:type
           rdf:resource="http://purl.org/dc/dcmitype/StillImage" /><dc:title></dc:title></cc:Work></rdf:RDF></metadata><defs
     id="defs6"><inkscape:tag
       id="Set 1"
       inkscape:expanded="true" /></defs><g
     transform="matrix(0.53390413,0,0,-0.53390413,-110.9955,208.44331)"
     id="g10"><path
       id="path12"
       style="fill:none;stroke:#231f20;stroke-width:1;stroke-linecap:butt;stroke-linejoin:miter;stroke-miterlimit:4;stroke-dasharray:none;stroke-opacity:1"
       d="m 240.26855,249.86523 c 0,0 27.70655,30.3877 74.18311,30.3877 57.20166,0 84.90772,-42.00684 157.3042,-42.00684 26.36719,0 43.34863,4.02246 62.56445,19.66309 -7.59668,-15.19434 -24.13086,-35.75098 -65.24511,-35.75098 -34.85743,0 -68.82129,18.32227 -91.61231,29.94141 -22.79101,11.61914 -44.68848,17.875 -66.58594,17.875 -21.89746,0 -44.24218,-5.80859 -70.6084,-20.10938 z"
       inkscape:connector-curvature="0" /><path
       id="path14"
       style="fill:none;stroke:#231f20;stroke-width:1;stroke-linecap:butt;stroke-linejoin:miter;stroke-miterlimit:4;stroke-dasharray:none;stroke-opacity:1"
       d="m 254.86719,247.63086 c 0,0 22.34472,13.85352 47.37011,13.85352 25.0254,0 46.92286,-12.5127 62.11719,-23.23829 -18.76904,4.02149 -27.26025,9.83106 -53.17969,0.89356 -11.17187,6.70312 -18.32226,15.6416 -56.30761,8.49121 z"
       inkscape:connector-curvature="0" /><path
       id="path16"
       style="fill:none;stroke:#231f20;stroke-width:1;stroke-linecap:butt;stroke-linejoin:miter;stroke-miterlimit:4;stroke-dasharray:none;stroke-opacity:1"
       d="m 438.53809,274.44434 c 0,0 16.08886,-23.23829 42.90136,-23.23829 26.8125,0 40.667,17.42872 46.0293,25.0254 -14.30078,-7.59668 -19.21582,-12.95997 -45.13574,-12.95997 -25.91992,0 -30.83496,5.81055 -43.79492,11.17286 z"
       inkscape:connector-curvature="0" /><path
       id="path18"
       style="fill:none;stroke:#231f20;stroke-width:1;stroke-linecap:butt;stroke-linejoin:miter;stroke-miterlimit:4;stroke-dasharray:none;stroke-opacity:1"
       d="m 305.8335,296.4082 c 0,0 -51.42579,4.02735 -83.65137,-20.61425 -6.78272,-5.18653 -13.83154,1.72851 -11.4375,7.31445 2.39404,5.58594 19.01758,20.21484 31.25293,23.93848 4.52197,15.95898 7.71338,27.52929 25.40137,36.83886 17.68798,9.30957 29.2583,10.90576 42.69043,11.17139 13.43212,0.26562 43.7539,-0.66553 52.39843,2.12744 8.64453,2.79297 24.33838,8.24561 40.56299,18.75195 16.22461,10.50635 22.60938,11.43702 29.65723,11.96924 7.04785,0.53223 14.76172,-0.39892 14.89453,-5.18652 0.13281,-4.7876 -12.63379,-7.84668 -17.6875,-11.17139 -5.05371,-3.32471 -16.0918,-10.37353 -16.0918,-19.5498 0,-9.17627 8.11133,-7.44727 17.28809,-7.44727 9.17676,0 20.08203,-2.66015 35.24316,-9.57568 15.16114,-6.91553 39.49805,-14.09717 50.27051,-14.22998 10.77246,-0.13282 18.61719,-0.53174 21.80859,3.85693 3.19141,4.38867 1.46289,14.22949 2.92579,16.88965 1.46289,2.66016 6.5166,8.51172 10.37304,8.91064 3.85645,0.39893 9.17578,2.92579 11.30371,4.7876 2.12793,1.86182 7.71387,-0.53223 3.3252,-6.78271 -4.38867,-6.25049 -7.04883,-6.64942 -7.04883,-14.22998 0,-7.58057 8.37891,-11.43702 8.37891,-17.95362 0,-6.5166 -7.04981,-11.1709 -13.43262,-15.29394 8.77734,0 19.0918,1.36328 19.94922,-14.09766 0.26562,-4.78711 -0.13281,-12.90039 3.05859,-15.82617 3.19141,-2.92578 3.98926,-3.45703 5.98438,-5.45215 1.99511,-1.99512 0.39843,-8.77734 -7.31446,-5.05371 -7.71289,3.72363 -11.96875,7.8457 -15.55957,13.29883 -3.59082,5.45312 -11.96777,15.56055 -25.2666,20.61328 -13.29883,5.05469 -23.93847,5.98437 -30.45508,5.85156 -6.5166,-0.13281 -25.00293,-2.12695 -37.76953,-7.8457 -12.7666,-5.71875 -36.43945,-8.91016 -47.07812,-8.64453 -10.63867,0.26562 -21.94336,3.45801 -30.85352,7.97949 4.65479,4.78809 11.96973,11.30469 18.61914,13.69824 6.64942,2.39356 17.82129,2.12744 23.27344,0.53174 5.45215,-1.59619 40.96191,-3.32471 50.93555,-0.79785 -8.77735,3.32471 -35.11035,14.09668 -52.13282,13.96387 -17.02246,-0.13282 -37.3706,3.05908 -54.79248,-4.12256 -17.42187,-7.18164 -26.73193,-17.42188 -29.92334,-20.61426 -1.06396,10.50684 -1.19726,26.19971 -22.07666,26.19971 -9.17627,0 -22.60986,-1.59522 -17.02343,-24.20362 z"
       inkscape:connector-curvature="0" /></g></svg>