<?xml version="1.0" encoding="UTF-8" standalone="no"?>
<svg
   xmlns:dc="http://purl.org/dc/elements/1.1/"
   xmlns:cc="http://creativecommons.org/ns#"
   xmlns:rdf="http://www.w3.org/1999/02/22-rdf-syntax-ns#"
   xmlns:svg="http://www.w3.org/2000/svg"
   xmlns="http://www.w3.org/2000/svg"
   height="168.39101"
   width="167.82266"
   xml:space="preserve"
   viewBox="0 0 503.46798 505.17302"
   y="0px"
   x="0px"
   id="Layer_1"
   version="1.1"><metadata
   id="metadata1083"><rdf:RDF><cc:Work
       rdf:about=""><dc:format>image/svg+xml</dc:format><dc:type
         rdf:resource="http://purl.org/dc/dcmitype/StillImage" /><dc:title></dc:title></cc:Work></rdf:RDF></metadata><defs
   id="defs1081" />
<g
   id="g1044"
   transform="translate(0.147,1)">
	<path
   id="path1036"
   d="M 4.121,226.84 H 174.788 V 192.707 H 4.121 Z m 0,153.6 H 174.788 V 346.307 H 4.121 Z m 204.8,0 H 379.588 V 346.307 H 208.921 Z m 0,-153.6 H 379.588 V 192.707 H 208.921 Z"
   style="fill:#ecf4f7" />
	<g
   id="g1042">
		<path
   id="path1038"
   d="m 174.787,158.573 v 34.133 H 4.121 v -34.133 c 0,-51.2 51.2,-68.267 68.267,-85.333 17.067,-17.066 17.067,-25.6 17.067,-25.6 0,0 0,8.533 17.067,25.6 17.067,17.067 68.265,34.133 68.265,85.333 z m 204.8,0 v 34.133 H 208.921 v -34.133 c 0,-51.2 51.2,-68.267 68.267,-85.333 17.067,-17.066 17.067,-25.6 17.067,-25.6 0,0 0,8.533 17.067,25.6 17.065,17.067 68.265,34.133 68.265,85.333 z M 4.121,346.307 H 174.788 V 226.84 H 4.121 Z m 204.8,0 H 379.588 V 226.84 H 208.921 Z m -34.134,34.133 v 34.133 c 0,46.933 -38.4,85.333 -85.333,85.333 -46.933,0 -85.333,-38.4 -85.333,-85.333 V 380.44 Z m 204.8,0 v 34.133 c 0,46.933 -38.4,85.333 -85.333,85.333 -46.933,0 -85.333,-38.4 -85.333,-85.333 V 380.44 Z"
   style="fill:#80d6fa" />
		<path
   id="path1040"
   d="m 311.321,22.04 v 8.533 c 0,4.267 -3.413,8.533 -8.533,8.533 h -8.533 -8.533 c -5.12,0 -8.533,-4.267 -8.533,-8.533 V 22.04 13.507 c 0,-4.267 3.413,-8.533 8.533,-8.533 h 17.067 c 5.12,0 8.533,4.267 8.533,8.533 v 8.533 z m 187.733,307.2 c 0,18.773 -15.36,34.133 -34.133,34.133 -18.773,0 -34.133,-15.36 -34.133,-34.133 0,-12.8 6.827,-23.893 17.067,-29.867 v -12.8 c 0,-4.267 3.413,-8.533 8.533,-8.533 h 8.533 8.533 c 5.12,0 8.533,4.267 8.533,8.533 v 12.8 c 10.24,6.827 17.067,17.067 17.067,29.867 z M 106.521,22.04 v 8.533 c 0,4.267 -4.267,8.533 -8.533,8.533 h -8.533 -8.533 c -4.267,0 -8.533,-4.267 -8.533,-8.533 V 22.04 13.507 c 0,-4.267 4.267,-8.533 8.533,-8.533 h 17.067 c 4.267,0 8.533,4.267 8.533,8.533 v 8.533 z"
   style="fill:#aab1ba" />
	</g>
</g>
<path
   id="path1046"
   d="m 294.401,505.173 c -49.493,0 -89.6,-40.107 -89.6,-89.6 v -29.867 h -25.6 v 29.867 c 0,49.493 -40.107,89.6 -89.6,89.6 -49.493,0 -89.6,-40.107 -89.6,-89.6 V 381.44 c 0,-2.56 1.707,-4.267 4.267,-4.267 h 375.467 c 2.56,0 4.267,1.707 4.267,4.267 v 34.133 c -0.001,49.494 -40.108,89.6 -89.601,89.6 z M 213.334,385.707 v 29.867 c 0,44.373 36.693,81.067 81.067,81.067 44.374,0 81.067,-36.693 81.067,-81.067 v -29.867 z m -204.8,0 v 29.867 c 0,44.373 36.693,81.067 81.067,81.067 44.374,0 81.067,-36.693 81.067,-81.067 V 385.707 Z M 465.068,368.64 c -21.333,0 -38.4,-17.067 -38.4,-38.4 0,-12.8 6.827,-24.747 17.067,-31.573 v -11.093 c 0,-6.827 5.973,-12.8 12.8,-12.8 h 4.267 V 176.64 c 0,-71.68 -38.4,-147.627 -145.067,-149.333 v 4.267 c 0,6.827 -5.973,12.8 -12.8,12.8 h -4.267 v 4.267 0 c 0,0 0.853,7.68 16.213,22.187 4.267,4.267 10.24,7.68 17.067,12.8 22.187,14.507 52.053,34.987 52.053,75.947 0,2.56 -1.707,4.267 -4.267,4.267 -2.56,0 -4.267,-1.707 -4.267,-4.267 0,-35.84 -27.307,-53.76 -48.64,-68.267 -7.68,-5.12 -13.653,-9.387 -18.773,-13.653 -6.827,-6.827 -11.093,-12.8 -13.653,-17.067 -2.56,4.267 -6.827,10.24 -13.653,17.067 -4.267,4.267 -11.093,8.533 -18.773,13.653 -21.333,14.507 -48.64,32.427 -48.64,68.267 0,2.56 -1.707,4.267 -4.267,4.267 -2.56,0 -4.267,-1.707 -4.267,-4.267 0,-40.107 29.867,-60.587 52.053,-75.947 6.827,-5.12 13.653,-8.533 17.067,-12.8 14.507,-14.507 15.36,-22.187 16.213,-23.04 V 43.52 h -4.267 c -6.827,0 -12.8,-5.973 -12.8,-12.8 V 26.453 H 110.934 v 4.267 c 0,6.827 -5.973,12.8 -12.8,12.8 h -4.267 v 4.267 0 c 0,0 0.853,7.68 16.213,22.187 4.267,4.267 10.24,7.68 17.067,12.8 22.187,14.507 52.053,34.987 52.053,75.947 0,2.56 -1.707,4.267 -4.267,4.267 -2.56,0 -4.267,-1.707 -4.267,-4.267 0,-35.84 -27.307,-53.76 -48.64,-68.267 -7.68,-5.12 -13.653,-9.387 -18.773,-13.653 C 96.427,69.973 92.161,64 89.601,59.733 87.041,64 82.774,69.973 75.947,76.8 71.68,81.067 64.854,85.333 57.174,90.453 35.84,104.96 8.534,122.88 8.534,158.72 c 0,2.56 -1.707,4.267 -4.267,4.267 C 1.707,162.987 0,161.28 0,158.72 0,118.613 29.867,98.133 52.053,82.773 58.88,77.653 65.706,74.24 69.12,69.973 83.627,55.466 84.48,47.786 85.333,46.933 v -4.267 h -4.266 c -6.827,0 -12.8,-5.973 -12.8,-12.8 V 25.6 h -25.6 v 12.8 c 0,2.56 -1.707,4.267 -4.267,4.267 -2.56,0 -4.267,-1.707 -4.267,-4.267 V 4.267 C 34.133,1.707 35.84,0 38.4,0 c 2.56,0 4.267,1.707 4.267,4.267 v 12.8 h 25.6 v -2.56 c 0,-6.827 5.973,-12.8 12.8,-12.8 h 17.067 c 6.827,0 12.8,5.973 12.8,12.8 v 4.267 h 162.133 v -4.267 c 0,-6.827 5.973,-12.8 12.8,-12.8 h 17.067 c 6.827,0 12.8,5.973 12.8,12.8 v 4.267 c 93.867,1.707 153.6,63.147 153.6,157.867 v 98.133 h 4.267 c 6.827,0 12.8,5.973 12.8,12.8 v 11.093 c 10.24,6.827 17.067,18.773 17.067,31.573 0,21.333 -17.067,38.4 -38.4,38.4 z m -8.534,-85.333 c -2.56,0 -4.267,1.707 -4.267,4.267 v 13.653 c 0,1.707 -0.853,2.56 -1.707,3.413 -9.387,5.12 -15.36,15.36 -15.36,25.6 0,16.213 13.653,29.867 29.867,29.867 16.214,0 29.867,-13.653 29.867,-29.867 0,-10.24 -5.973,-20.48 -15.36,-25.6 -1.707,-0.853 -1.707,-2.56 -1.707,-3.413 v -13.653 c 0,-2.56 -1.707,-4.267 -4.267,-4.267 z M 294.401,35.84 h 8.533 c 2.56,0 4.267,-1.707 4.267,-4.267 V 14.507 c 0,-2.56 -1.707,-4.267 -4.267,-4.267 h -17.067 c -2.56,0 -4.267,1.707 -4.267,4.267 v 17.067 c 0,2.56 1.707,4.267 4.267,4.267 h 8.534 z m -204.8,0 h 8.533 c 2.56,0 4.267,-1.707 4.267,-4.267 V 14.507 c 0,-2.56 -1.707,-4.267 -4.267,-4.267 H 81.068 c -2.56,0 -4.267,1.707 -4.267,4.267 v 17.067 c 0,2.56 1.707,4.267 4.267,4.267 h 8.533 z M 379.734,351.573 H 4.268 c -2.56,0 -4.267,-1.707 -4.267,-4.267 0,-2.56 1.707,-4.267 4.267,-4.267 h 375.467 c 2.56,0 4.267,1.707 4.267,4.267 0,2.56 -1.708,4.267 -4.268,4.267 z m 0,-34.133 c -2.56,0 -4.267,-1.707 -4.267,-4.267 V 232.106 H 213.334 v 81.067 c 0,2.56 -1.707,4.267 -4.267,4.267 -2.56,0 -4.267,-1.707 -4.267,-4.267 v -81.067 h -25.6 v 81.067 c 0,2.56 -1.707,4.267 -4.267,4.267 -2.56,0 -4.267,-1.707 -4.267,-4.267 V 232.106 H 8.534 v 81.067 c 0,2.56 -1.707,4.267 -4.267,4.267 C 1.707,317.44 0,315.733 0,313.173 V 227.84 c 0,-2.56 1.707,-4.267 4.267,-4.267 h 375.467 c 2.56,0 4.267,1.707 4.267,4.267 v 85.333 c 0,2.56 -1.707,4.267 -4.267,4.267 z m 0,-119.467 H 4.268 c -2.56,0 -4.267,-1.707 -4.267,-4.267 0,-2.56 1.707,-4.267 4.267,-4.267 h 375.467 c 2.56,0 4.267,1.707 4.267,4.267 -0.001,2.561 -1.708,4.267 -4.268,4.267 z"
   style="fill:#51565f" />
<g
   transform="translate(-0.853)"
   id="g1048">
</g>
<g
   transform="translate(-0.853)"
   id="g1050">
</g>
<g
   transform="translate(-0.853)"
   id="g1052">
</g>
<g
   transform="translate(-0.853)"
   id="g1054">
</g>
<g
   transform="translate(-0.853)"
   id="g1056">
</g>
<g
   transform="translate(-0.853)"
   id="g1058">
</g>
<g
   transform="translate(-0.853)"
   id="g1060">
</g>
<g
   transform="translate(-0.853)"
   id="g1062">
</g>
<g
   transform="translate(-0.853)"
   id="g1064">
</g>
<g
   transform="translate(-0.853)"
   id="g1066">
</g>
<g
   transform="translate(-0.853)"
   id="g1068">
</g>
<g
   transform="translate(-0.853)"
   id="g1070">
</g>
<g
   transform="translate(-0.853)"
   id="g1072">
</g>
<g
   transform="translate(-0.853)"
   id="g1074">
</g>
<g
   transform="translate(-0.853)"
   id="g1076">
</g>
</svg>