<?xml version="1.0" encoding="UTF-8" standalone="no"?>
<svg
   xmlns:dc="http://purl.org/dc/elements/1.1/"
   xmlns:cc="http://creativecommons.org/ns#"
   xmlns:rdf="http://www.w3.org/1999/02/22-rdf-syntax-ns#"
   xmlns:svg="http://www.w3.org/2000/svg"
   xmlns="http://www.w3.org/2000/svg"
   height="167.82234"
   width="167.53801"
   xml:space="preserve"
   viewBox="0 0 502.61402 503.46702"
   y="0px"
   x="0px"
   id="Layer_1"
   version="1.1"><metadata
   id="metadata1890"><rdf:RDF><cc:Work
       rdf:about=""><dc:format>image/svg+xml</dc:format><dc:type
         rdf:resource="http://purl.org/dc/dcmitype/StillImage" /><dc:title></dc:title></cc:Work></rdf:RDF></metadata><defs
   id="defs1888" />
<g
   id="g1851"
   transform="translate(0.574,1)">
	<path
   id="path1845"
   d="m 429.507,105.667 v 128 c 0,25.6 -25.6,34.133 -25.6,34.133 l -59.733,20.48 c 0,0 -25.6,13.653 -42.667,-3.413 l -51.2,-68.267 c 0,0 -12.8,-17.067 -34.133,-17.067 -21.333,0 -34.134,17.067 -34.134,17.067 l -51.2,68.267 c -17.067,17.067 -42.667,3.413 -42.667,3.413 L 28.44,267.8 c 0,0 -25.6,-8.533 -25.6,-34.133 v -128 C 2.84,68.12 33.56,37.4 71.107,37.4 H 361.24 c 37.547,0 68.267,30.72 68.267,68.267 z"
   style="fill:#ecf4f7" />
	<polygon
   id="polygon1847"
   points="497.773,122.733 497.773,3.267 463.64,3.267 463.64,122.733 "
   style="fill:#aab1ba" />
	<path
   id="path1849"
   d="m 233.24,395.8 c 0,37.547 30.72,68.267 68.267,68.267 h 93.867 c 37.547,0 68.267,-30.72 68.267,-68.267 V 122.733 h 34.133 V 395.8 c 0,56.32 -46.08,102.4 -102.4,102.4 h -102.4 c -56.32,0 -102.4,-46.08 -102.4,-102.4 -18.773,0 -34.133,-15.36 -34.133,-34.133 0,-18.773 15.36,-34.133 34.133,-34.133 h 51.2 c 18.773,0 34.133,15.36 34.133,34.133 0,18.773 -15.36,34.133 -34.133,34.133 z"
   style="fill:#80d6fa" />
</g>
<path
   id="path1853"
   d="m 395.947,503.467 h -102.4 c -57.173,0 -104.107,-46.08 -106.667,-102.4 -19.627,-1.707 -34.133,-18.773 -34.133,-38.4 0,-21.333 17.067,-38.4 38.4,-38.4 h 51.2 c 21.333,0 38.4,17.067 38.4,38.4 0,21.333 -17.067,38.4 -38.4,38.4 h -4.267 c 2.56,33.28 29.867,59.733 64,59.733 h 93.867 c 34.987,0 64,-29.013 64,-64 V 4.267 c 0,-2.56 1.707,-4.267 4.267,-4.267 h 34.133 c 2.56,0 4.267,1.707 4.267,4.267 V 396.8 c 0,58.88 -47.787,106.667 -106.667,106.667 z M 191.147,332.8 c -16.213,0 -29.867,13.653 -29.867,29.867 0,16.214 13.653,29.867 29.867,29.867 2.56,0 4.267,1.707 4.267,4.267 0,53.76 44.373,98.133 98.133,98.133 h 102.4 c 53.76,0 98.133,-44.373 98.133,-98.133 V 128 h -25.6 v 268.8 c 0,40.107 -32.427,72.533 -72.533,72.533 H 302.08 c -38.4,0 -69.973,-29.867 -72.533,-68.267 h -4.267 c -2.56,0 -4.267,-1.707 -4.267,-4.267 0,-2.56 1.707,-4.267 4.267,-4.267 h 17.067 c 16.213,0 29.867,-13.653 29.867,-29.867 0,-16.214 -13.653,-29.865 -29.867,-29.865 z M 468.481,119.467 h 25.6 V 8.533 h -25.6 z m -145.067,179.2 c -7.68,0 -17.067,-2.56 -24.747,-10.24 l -51.2,-69.12 c 0,0 -11.947,-15.36 -30.72,-15.36 -18.773,0 -30.72,15.36 -30.72,15.36 l -51.2,68.267 c -19.627,19.627 -46.933,5.12 -47.787,4.267 L 28.16,271.361 C 17.92,267.948 0,256.001 0,232.961 v -128 C 0,64.854 32.427,32.428 72.533,32.428 h 290.133 c 40.107,0 72.533,32.427 72.533,72.533 v 128 c 0,23.04 -18.773,34.987 -28.16,38.4 l -59.733,20.48 c -1.705,1.706 -11.092,6.826 -23.892,6.826 z m -106.667,-102.4 c 23.893,0 36.693,17.92 37.547,18.773 l 51.2,68.267 c 14.507,14.507 36.693,2.56 37.547,2.56 l 60.587,-21.333 c 0.853,0 23.04,-7.68 23.04,-29.867 v -128 c 0,-34.987 -29.013,-64 -64,-64 H 72.534 c -34.987,0 -64,29.013 -64,64 v 128 c 0,22.187 22.187,29.867 23.04,29.867 l 59.733,20.48 c 1.707,0.853 23.893,11.947 38.4,-2.56 l 51.2,-67.413 c -0.853,-0.854 12.8,-18.774 35.84,-18.774 z m 153.6,-42.667 c -0.853,0 -2.56,0 -3.413,-0.853 l -51.2,-51.2 c -0.853,-0.853 -0.853,-1.707 -0.853,-3.413 0,-1.706 0,-2.56 0.853,-3.413 1.707,-1.707 4.267,-1.707 5.973,0 l 51.2,51.2 c 0.853,0.853 0.853,1.707 0.853,3.413 0,1.706 0,2.56 -0.853,3.413 -0.853,0.853 -1.706,0.853 -2.56,0.853 z m -221.866,0 c -0.853,0 -2.56,0 -3.413,-0.853 l -51.2,-51.2 c -0.853,-0.853 -0.853,-1.707 -0.853,-3.413 0,-1.706 0,-2.56 0.853,-3.413 1.707,-1.707 4.267,-1.707 5.973,0 l 51.2,51.2 c 0.853,0.853 0.853,1.707 0.853,3.413 0,1.706 0,2.56 -0.853,3.413 -0.854,0.853 -1.707,0.853 -2.56,0.853 z m 230.4,-42.667 c -0.853,0 -2.56,0 -3.413,-0.853 L 358.401,93.013 c -0.853,-0.853 -0.853,-1.707 -0.853,-3.413 0,-1.706 0,-2.56 0.853,-3.413 1.707,-1.707 4.267,-1.707 5.973,0 l 17.067,17.067 c 0.853,0.853 0.853,1.707 0.853,3.413 0,1.706 0,2.56 -0.853,3.413 -0.854,0.853 -1.707,0.853 -2.56,0.853 z m -221.867,0 c -0.853,0 -2.56,0 -3.413,-0.853 L 136.534,93.013 c -0.853,-0.853 -0.853,-1.707 -0.853,-3.413 0,-1.706 0,-2.56 0.853,-3.413 1.707,-1.707 4.267,-1.707 5.973,0 l 17.067,17.066 c 0.853,0.853 0.853,1.707 0.853,3.413 0,1.706 0,2.56 -0.853,3.413 -0.853,0.854 -1.707,0.854 -2.56,0.854 z"
   style="fill:#51565f" />
<g
   transform="translate(-0.426)"
   id="g1855">
</g>
<g
   transform="translate(-0.426)"
   id="g1857">
</g>
<g
   transform="translate(-0.426)"
   id="g1859">
</g>
<g
   transform="translate(-0.426)"
   id="g1861">
</g>
<g
   transform="translate(-0.426)"
   id="g1863">
</g>
<g
   transform="translate(-0.426)"
   id="g1865">
</g>
<g
   transform="translate(-0.426)"
   id="g1867">
</g>
<g
   transform="translate(-0.426)"
   id="g1869">
</g>
<g
   transform="translate(-0.426)"
   id="g1871">
</g>
<g
   transform="translate(-0.426)"
   id="g1873">
</g>
<g
   transform="translate(-0.426)"
   id="g1875">
</g>
<g
   transform="translate(-0.426)"
   id="g1877">
</g>
<g
   transform="translate(-0.426)"
   id="g1879">
</g>
<g
   transform="translate(-0.426)"
   id="g1881">
</g>
<g
   transform="translate(-0.426)"
   id="g1883">
</g>
</svg>